PathFileType	4	(X/Y/Z)	TVC_20_BWA6_walk_RCNL2025.trc
DataRate	CameraRate	NumFrames	NumMarkers	Units	OrigDataRate	OrigDataStartFrame	OrigNumFrames
100	100	4	27	mm	100	30	238
Frame#	Time	R_Shoulder			L_Shoulder			C7			J_Notch			R_Elbow			L_Elbow			R_Wrist			L_Wrist			R_Asis			L_Asis			R_Psis			L_Psis			Sacral			Thoracic			Sternum			R_Thigh_Lateral			R_Knee_Lateral			R_Shank_Lateral			R_Ankle_Lateral			R_Heel			R_Toe			L_Thigh_Lateral			L_Knee_Lateral			L_Shank_Lateral			L_Ankle_Lateral			L_Heel			L_Toe		
		X1	Y1	Z1	X2	Y2	Z2	X3	Y3	Z3	X4	Y4	Z4	X5	Y5	Z5	X6	Y6	Z6	X7	Y7	Z7	X8	Y8	Z8	X9	Y9	Z9	X10	Y10	Z10	X11	Y11	Z11	X12	Y12	Z12	X13	Y13	Z13	X14	Y14	Z14	X15	Y15	Z15	X16	Y16	Z16	X17	Y17	Z17	X18	Y18	Z18	X19	Y19	Z19	X20	Y20	Z20	X21	Y21	Z21	X22	Y22	Z22	X23	Y23	Z23	X24	Y24	Z24	X25	Y25	Z25	X26	Y26	Z26	X27	Y27	Z27
30	0.29000000	-935.447571	1407.662964	30.422693	-961.587158	1423.150635	-335.441467	-972.298401	1469.686523	-141.544876	-858.068054	1334.984253	-147.582581	-1013.943359	1114.466431	149.050934	-1011.885071	1115.850952	-442.245453	-841.592499	918.475952	134.648266	-835.436127	922.067841	-422.272354	-914.513367	1012.232605	-6.794896	-910.534363	1018.910522	-282.937012	-1068.744385	1013.337219	-100.516624	-1079.520752	1010.135681	-189.549606	-1074.132568	1011.736450	-145.033115	-1089.051392	1246.487305	-151.254578	-849.250854	1192.549561	-154.835846	-844.073425	695.833801	70.386345	-777.836670	502.496552	-2.333384	-855.217957	333.199677	42.735744	-933.790771	120.942398	-45.867027	-985.652283	110.691628	-97.094879	-804.868530	50.484959	-60.758724	-978.006775	649.919128	-343.810303	-970.856506	489.708954	-260.509583	-1016.408630	311.322540	-312.568237	-1049.601318	71.834709	-220.345093	-1097.755249	64.406715	-179.953568	-909.962708	38.738411	-187.122482
31	0.30000000	-922.450806	1405.870605	30.694586	-949.147644	1421.944824	-334.985901	-959.722168	1468.088745	-141.101349	-845.432556	1333.346313	-147.585724	-1002.704590	1113.290405	149.466751	-996.079834	1114.899048	-443.760071	-830.836884	916.820892	136.513561	-816.032745	924.674622	-422.897675	-901.160278	1010.233459	-7.064869	-898.608765	1017.491394	-283.417816	-1055.733887	1011.450195	-100.134506	-1067.088745	1008.582336	-189.069504	-1061.411316	1010.016266	-144.602005	-1076.385010	1244.988159	-150.592529	-836.703430	1190.801147	-155.328293	-827.146912	695.629272	70.013077	-759.419006	503.417023	-3.714120	-827.860657	330.296021	42.128487	-891.595581	112.905304	-45.687206	-942.338257	99.310921	-97.198448	-758.549927	50.353176	-59.693863	-971.072083	649.067993	-344.148743	-966.999329	488.772461	-260.751221	-1014.986877	311.032410	-312.710754	-1049.662476	72.030998	-219.985855	-1097.605591	64.504890	-179.247177	-909.912048	38.628349	-187.140610
32	0.31000000	-909.363647	1403.824097	30.993164	-936.695557	1420.428955	-334.479675	-947.125427	1466.209961	-140.629852	-832.773315	1331.400757	-147.569839	-991.286255	1111.813477	149.870422	-980.117615	1113.681030	-445.207520	-819.948944	914.821991	138.313839	-796.705078	926.936737	-423.365341	-887.784485	1007.856750	-7.255721	-886.710815	1015.853638	-283.848877	-1042.660522	1009.248352	-99.631439	-1054.635254	1006.738586	-188.459946	-1048.647888	1007.993469	-144.045692	-1063.702515	1243.209229	-149.790039	-824.156677	1188.734375	-155.774017	-811.619202	694.564331	69.480385	-741.769836	503.804474	-5.121149	-801.299438	327.548706	41.522247	-849.257507	105.923134	-45.442966	-898.634216	89.064384	-97.272308	-712.515015	51.404137	-58.518608	-963.775818	648.036560	-344.468933	-962.589539	487.748077	-260.960846	-1013.000977	310.664337	-312.812256	-1049.654907	72.243500	-219.578400	-1097.425781	64.683876	-178.550537	-909.845215	38.513157	-187.103516
33	0.32000000	-896.189148	1401.554565	31.326456	-924.221252	1418.643188	-333.915771	-934.501587	1464.081055	-140.123520	-820.081421	1329.187012	-147.526947	-979.687195	1110.062378	150.266449	-964.007874	1112.238403	-446.574219	-808.928101	912.507019	140.042126	-777.469940	928.872559	-423.672485	-874.355652	1005.148254	-7.388866	-874.835999	1014.028381	-284.243134	-1029.506592	1006.768127	-99.005241	-1042.143555	1004.638855	-187.713043	-1035.825073	1005.703491	-143.359142	-1050.989746	1241.175293	-148.851379	-811.594116	1186.394775	-156.171188	-797.589722	692.550293	68.735840	-724.856201	503.661163	-6.557155	-775.542419	324.930725	40.888294	-807.013855	100.103027	-45.156734	-854.800110	80.139801	-97.341553	-667.020813	53.631771	-57.204037	-956.052429	646.859985	-344.757263	-957.596252	486.634827	-261.130890	-1010.410339	310.219330	-312.864685	-1049.566895	72.472008	-219.124786	-1097.211182	64.957634	-177.870270	-909.750854	38.394070	-187.012451
